#define fd662ed1522c4445d5546b9fd4c7ef747PdSrsDvC7WEH0u9_width 32
#define fd662ed1522c4445d5546b9fd4c7ef747PdSrsDvC7WEH0u9_height 32
static char fd662ed1522c4445d5546b9fd4c7ef747PdSrsDvC7WEH0u9_bits[] = {
  0x00, 0x00, 0x00, 0x00, 0xFE, 0xFF, 0xFF, 0x7F, 0x02, 0x00, 0x00, 0x40, 
  0xFA, 0x01, 0x80, 0x5F, 0x0A, 0x01, 0x80, 0x50, 0x6A, 0x01, 0x80, 0x56, 
  0x6A, 0x01, 0x80, 0x56, 0x0A, 0x01, 0x80, 0x50, 0xFA, 0x01, 0x80, 0x5F, 
  0x02, 0x00, 0x00, 0x40, 0x02, 0x00, 0x00, 0x40, 0x02, 0x0E, 0x70, 0x40, 
  0x02, 0x11, 0x88, 0x40, 0x82, 0x20, 0x04, 0x41, 0x02, 0x00, 0x00, 0x40, 
  0x02, 0x00, 0x00, 0x40, 0x02, 0x00, 0x00, 0x40, 0x02, 0x00, 0x00, 0x40, 
  0x02, 0x00, 0x00, 0x40, 0x02, 0x10, 0x08, 0x40, 0x02, 0x20, 0x04, 0x40, 
  0x02, 0xC0, 0x03, 0x40, 0x02, 0x00, 0x00, 0x40, 0xFA, 0x01, 0x00, 0x40, 
  0x0A, 0x01, 0x00, 0x40, 0x6A, 0x01, 0x00, 0x40, 0x6A, 0x01, 0x00, 0x40, 
  0x0A, 0x01, 0x00, 0x40, 0xFA, 0x01, 0x00, 0x40, 0x02, 0x00, 0x00, 0x40, 
  0xFE, 0xFF, 0xFF, 0x7F, 0x00, 0x00, 0x00, 0x00, };
